<svg id="logo" xmlns="http://www.w3.org/2000/svg" width="53" height="53" viewBox="0 0 53 53">
  <path id="bound" d="M0,0H53V53H0Z" fill="none"/>
  <g id="Group_120" data-name="Group 120" transform="translate(-3010.929 3118.778)">
    <path id="Path_680" data-name="Path 680" d="M1021.588,249.706l-1.972-1.972-4.959-4.959-3.687-3.688-6.234-6.234-3.646-3.646a1.856,1.856,0,0,0-.314-.264,1.69,1.69,0,0,0-.171-.093c-.045-.023-.087-.051-.134-.07a1.811,1.811,0,0,0-.3-.092c-.014,0-.026-.009-.04-.012a1.822,1.822,0,0,0-.362-.036h-.005a1.756,1.756,0,0,0-.2.02c-.047.005-.1,0-.142.014a1.826,1.826,0,0,0-1.081.649l-15.824,15.829-1.306,1.307-1.972,1.972a4.225,4.225,0,0,0,0,5.975l1.972,1.972,4.959,4.959,4.959,4.959.006-.006,4.925,4.907,3.688,3.688a1.8,1.8,0,0,0,2.544,0l17.318-17.231,1.972-1.972A4.225,4.225,0,0,0,1021.588,249.706Z" transform="translate(2037 -3343)" fill="#252039"/>
    <path id="Path_681" data-name="Path 681" d="M1021.588,249.706l-1.972-1.972-4.959-4.959-3.687-3.688a1.8,1.8,0,0,0-2.544,0l-3.687,3.688-4.534,4.534,4.959,4.959,3.7-3.7a1.177,1.177,0,0,1,1.666,0l3.294,3.294a1.178,1.178,0,0,1,0,1.666L1001.7,265.6a.944.944,0,0,1-1.333,0l-3.6-3.591a.944.944,0,0,1,0-1.336l3.866-3.866-4.959-4.959-3.7,3.7a1.178,1.178,0,0,1-1.666,0l-3.294-3.294a1.178,1.178,0,0,1,0-1.666l17.725-17.732-3.646-3.646a1.856,1.856,0,0,0-.314-.264,1.69,1.69,0,0,0-.171-.093c-.045-.023-.087-.051-.134-.07a1.811,1.811,0,0,0-.3-.092c-.014,0-.026-.009-.04-.012a1.822,1.822,0,0,0-.362-.036h-.005a1.756,1.756,0,0,0-.2.02c-.047.005-.1,0-.142.014a1.826,1.826,0,0,0-1.081.649l-17.13,17.136-1.972,1.972a4.225,4.225,0,0,0,0,5.975l1.972,1.972,4.959,4.959,4.959,4.959.006-.006,4.925,4.907,3.688,3.688a1.8,1.8,0,0,0,2.544,0l17.318-17.231,1.972-1.972A4.225,4.225,0,0,0,1021.588,249.706Z" transform="translate(2037 -3343)" fill="#ff4952"/>
  </g>
</svg>
