<svg id="logo" xmlns="http://www.w3.org/2000/svg" width="53" height="53" viewBox="0 0 53 53">
  <path id="bound" d="M0,0H53V53H0Z" fill="none"/>
  <g id="Group_118" data-name="Group 118" transform="translate(-73.246 -20.233)">
    <path id="Path_605" data-name="Path 605" d="M116.415,50.841c1.134,0,2.254-.059,3.362-.163V40.639A15.99,15.99,0,0,0,103.788,24.65h0V35.664h4.91v7.629h0A17.979,17.979,0,0,1,90.72,25.315V24.65h-8.7A35.685,35.685,0,0,0,116.415,50.841Z" transform="translate(-0.029 0)" fill="#ff4952"/>
    <path id="Path_606" data-name="Path 606" d="M79.834,24.65h-.09V60.476A10.947,10.947,0,0,0,90.691,71.422V53.908h11.543a6.436,6.436,0,0,1,6.435,6.435h0a11.079,11.079,0,0,0,11.079,11.079V52.762c-1.109.1-2.229.157-3.362.157A37.77,37.77,0,0,1,79.834,24.65Z" transform="translate(0 0)" fill="#fff"/>
  </g>
</svg>
