<svg id="laravel" xmlns="http://www.w3.org/2000/svg" width="48" height="48" viewBox="0 0 48 48">
  <path id="bound" d="M0,0H48V48H0Z" fill="none"/>
  <path id="laravel-2" d="M29.468,6.867a.481.481,0,0,1,.017.124v6.515a.475.475,0,0,1-.239.412l-5.468,3.148v6.24a.476.476,0,0,1-.238.412L12.125,30.29a.51.51,0,0,1-.083.034c-.011,0-.021.01-.032.013a.478.478,0,0,1-.243,0c-.013,0-.025-.011-.037-.015a.494.494,0,0,1-.078-.032L.239,23.719A.476.476,0,0,1,0,23.307V3.761a.486.486,0,0,1,.017-.125c0-.014.012-.026.017-.04a.468.468,0,0,1,.03-.074A.444.444,0,0,1,.1,3.481a.484.484,0,0,1,.042-.055A.464.464,0,0,1,.185,3.39a.387.387,0,0,1,.052-.041h0L5.945.064a.476.476,0,0,1,.475,0l5.706,3.286h0a.582.582,0,0,1,.052.04.562.562,0,0,1,.046.036.555.555,0,0,1,.043.056.438.438,0,0,1,.032.042.5.5,0,0,1,.031.074c0,.014.013.026.017.04a.48.48,0,0,1,.017.124V15.969l4.755-2.738V6.99a.48.48,0,0,1,.017-.124c0-.014.012-.027.017-.04a.536.536,0,0,1,.031-.074c.009-.015.022-.028.032-.042a.489.489,0,0,1,.043-.055.456.456,0,0,1,.046-.036.48.48,0,0,1,.052-.041h0l5.707-3.286a.476.476,0,0,1,.475,0l5.706,3.286a.525.525,0,0,1,.053.04c.015.012.032.023.046.036a.556.556,0,0,1,.043.056.359.359,0,0,1,.032.042.471.471,0,0,1,.031.074.34.34,0,0,1,.017.04Zm-.935,6.364V7.813l-2,1.15-2.759,1.588v5.418l4.756-2.738Zm-5.706,9.8V17.61l-2.714,1.55-7.749,4.423v5.472ZM.951,4.584V23.032l10.462,6.023V23.584L5.948,20.49h0a22.583,22.583,0,0,0-.1-.074v0a.452.452,0,0,1-.039-.05.507.507,0,0,1-.036-.046v0a.379.379,0,0,1-.025-.059.351.351,0,0,1-.023-.053h0a.455.455,0,0,1-.01-.069.412.412,0,0,1-.007-.053V7.322L2.948,5.733l-2-1.148ZM6.183,1.024,1.428,3.761,6.181,6.5l4.754-2.737L6.181,1.024ZM8.655,18.1l2.758-1.588V4.584l-2,1.15L6.658,7.322V19.255ZM23.3,4.254,18.549,6.991,23.3,9.728,28.056,6.99Zm-.476,6.3L20.068,8.963l-2-1.15v5.418l2.758,1.588,2,1.15ZM11.888,22.76l6.973-3.981,3.486-1.989L17.6,14.055,12.127,17.2l-4.985,2.87Z" transform="translate(9.258 8.823)" fill="#ff2d20"/>
</svg>
