<svg id="mongodb" xmlns="http://www.w3.org/2000/svg" width="48" height="48" viewBox="0 0 48 48">
  <path id="bound" d="M0,0H48V48H0Z" fill="none"/>
  <g id="mongodb_atlas-h0ai1yctwo" transform="translate(17.189 8.823)">
    <path id="Path_957" data-name="Path 957" d="M13.428,12.087C11.814,5.023,8.5,3.136,7.643,1.827A13.028,13.028,0,0,1,6.7,0a1.766,1.766,0,0,1-.67,1.492A16.86,16.86,0,0,0,.062,14.157C-.3,21.616,5.543,26.243,6.334,26.731a1.681,1.681,0,0,0,1.674-.274,14.546,14.546,0,0,0,5.419-14.37" transform="translate(-0.046)" fill="#10aa50"/>
    <path id="Path_958" data-name="Path 958" d="M21.239,74.7a14.656,14.656,0,0,1-.639,3.988q.182,1.815.426,3.623h.609a30.075,30.075,0,0,1,.67-3.9C21.513,78.018,21.27,76.314,21.239,74.7Z" transform="translate(-14.342 -51.958)" fill="#b8c4c2"/>
    <path id="Path_959" data-name="Path 959" d="M23.418,26.8h0c-.792-.365-1.035-2.1-1.066-3.714a72.519,72.519,0,0,0,.183-7.977c-.03-1.4.03-12.939-.335-14.614.152.335.518,1.1.852,1.674.852,1.34,4.171,3.2,5.785,10.26A14.575,14.575,0,0,1,23.418,26.8Z" transform="translate(-15.455 -0.348)" fill="#12924f"/>
  </g>
</svg>
