<svg id="nodejs" xmlns="http://www.w3.org/2000/svg" xmlns:xlink="http://www.w3.org/1999/xlink" width="48" height="48" viewBox="0 0 48 48">
  <defs>
    <clipPath id="clip-path">
      <path id="Path_952" data-name="Path 952" d="M198.106,225.982l-3.538,2.042a.427.427,0,0,0-.214.37v4.087a.427.427,0,0,0,.214.37l3.538,2.044a.428.428,0,0,0,.427,0l3.538-2.044a.428.428,0,0,0,.213-.37v-4.087a.427.427,0,0,0-.214-.37l-3.537-2.042a.43.43,0,0,0-.428,0" transform="translate(-194.354 -225.925)"/>
    </clipPath>
    <linearGradient id="linear-gradient" x1="-0.847" y1="-1.034" x2="-0.838" y2="-1.034" gradientUnits="objectBoundingBox">
      <stop offset="0.3" stop-color="#3e863d"/>
      <stop offset="0.5" stop-color="#55934f"/>
      <stop offset="0.8" stop-color="#5aad45"/>
    </linearGradient>
    <clipPath id="clip-path-2">
      <path id="Path_954" data-name="Path 954" d="M195.4,232.873a.428.428,0,0,0,.126.111l3.035,1.753.506.291a.429.429,0,0,0,.246.056.436.436,0,0,0,.084-.015l3.732-6.833a.423.423,0,0,0-.1-.079l-2.317-1.338-1.225-.7a.446.446,0,0,0-.111-.045Zm0,0" transform="translate(-195.398 -226.069)"/>
    </clipPath>
    <linearGradient id="linear-gradient-2" x1="-0.742" y1="-0.932" x2="-0.737" y2="-0.932" gradientUnits="objectBoundingBox">
      <stop offset="0.57" stop-color="#3e863d"/>
      <stop offset="0.72" stop-color="#619857"/>
      <stop offset="1" stop-color="#76ac64"/>
    </linearGradient>
    <clipPath id="clip-path-3">
      <path id="Path_956" data-name="Path 956" d="M200.72,225.936a.432.432,0,0,0-.171.055l-3.528,2.036,3.8,6.929a.425.425,0,0,0,.152-.052l3.538-2.044a.429.429,0,0,0,.207-.292l-3.878-6.625a.444.444,0,0,0-.086-.009l-.035,0" transform="translate(-197.021 -225.934)"/>
    </clipPath>
    <linearGradient id="linear-gradient-3" x1="-2.148" y1="-2.103" x2="-2.138" y2="-2.103" gradientUnits="objectBoundingBox">
      <stop offset="0.16" stop-color="#6bbf47"/>
      <stop offset="0.38" stop-color="#79b461"/>
      <stop offset="0.47" stop-color="#75ac64"/>
      <stop offset="0.7" stop-color="#659e5a"/>
      <stop offset="0.9" stop-color="#3e863d"/>
    </linearGradient>
  </defs>
  <path id="bound" d="M0,0H48V48H0Z" fill="none"/>
  <g id="logo_1_" data-name="logo (1)" transform="translate(5.425 12.623)">
    <path id="Path_947" data-name="Path 947" d="M174.335,171.062a.706.706,0,0,1-.352-.094l-1.12-.663c-.167-.094-.086-.127-.03-.146a2.262,2.262,0,0,0,.506-.231.085.085,0,0,1,.083.006l.86.511a.113.113,0,0,0,.1,0l3.355-1.937a.106.106,0,0,0,.051-.091v-3.871a.108.108,0,0,0-.052-.092l-3.354-1.935a.1.1,0,0,0-.1,0l-3.353,1.935a.107.107,0,0,0-.053.092v3.871a.1.1,0,0,0,.052.09l.919.531c.5.249.8-.045.8-.34v-3.821a.1.1,0,0,1,.1-.1h.425a.1.1,0,0,1,.1.1V168.7a.93.93,0,0,1-.993,1.047,1.438,1.438,0,0,1-.773-.21l-.88-.507a.709.709,0,0,1-.352-.612v-3.871a.705.705,0,0,1,.352-.611L173.983,162a.736.736,0,0,1,.705,0l3.354,1.938a.708.708,0,0,1,.352.611v3.871a.71.71,0,0,1-.352.611l-3.354,1.937a.705.705,0,0,1-.354.094" transform="translate(-155.974 -148.31)" fill="#689f63"/>
    <path id="Path_948" data-name="Path 948" d="M211.618,187.864c-1.468,0-1.776-.674-1.776-1.239a.1.1,0,0,1,.1-.1h.433a.1.1,0,0,1,.1.082c.066.442.26.664,1.148.664.707,0,1.008-.16,1.008-.535,0-.216-.086-.376-1.184-.484-.919-.091-1.486-.293-1.486-1.028,0-.677.571-1.08,1.528-1.08,1.074,0,1.607.373,1.674,1.174a.1.1,0,0,1-.1.106h-.436a.1.1,0,0,1-.094-.076c-.1-.464-.359-.613-1.048-.613-.772,0-.862.269-.862.47,0,.244.106.316,1.147.453s1.521.33,1.521,1.055-.61,1.15-1.673,1.15m4.086-4.106h.113a.1.1,0,0,0,.11-.1c0-.1-.068-.1-.106-.1H215.7Zm-.137-.317h.249c.086,0,.254,0,.254.191a.167.167,0,0,1-.137.178c.1.007.107.072.12.165a.708.708,0,0,0,.038.191h-.154c0-.034-.028-.218-.028-.228-.01-.041-.024-.061-.076-.061H215.7v.291h-.14Zm-.3.361a.542.542,0,1,0,.54-.541.543.543,0,0,0-.54.541m1.189,0a.647.647,0,1,1-.647-.647.649.649,0,0,1,.647.647" transform="translate(-192.22 -167.779)" fill="#689f63"/>
    <path id="Path_949" data-name="Path 949" d="M7.973,7.6a.43.43,0,0,0-.215-.373L4.2,5.185a.415.415,0,0,0-.2-.056H3.969a.423.423,0,0,0-.2.056L.215,7.231A.433.433,0,0,0,0,7.6l.008,5.512a.212.212,0,0,0,.107.186.2.2,0,0,0,.213,0l2.115-1.211a.434.434,0,0,0,.215-.373V9.144a.428.428,0,0,1,.215-.372l.9-.518A.427.427,0,0,1,3.987,8.2a.42.42,0,0,1,.214.058l.9.518a.429.429,0,0,1,.215.372v2.575a.435.435,0,0,0,.215.373L7.644,13.3a.21.21,0,0,0,.215,0,.216.216,0,0,0,.106-.186Zm16.785,2.87a.107.107,0,0,1-.054.093l-1.222.7a.108.108,0,0,1-.107,0l-1.222-.7a.106.106,0,0,1-.054-.093V9.064a.108.108,0,0,1,.053-.093l1.221-.705a.109.109,0,0,1,.108,0l1.222.705a.107.107,0,0,1,.054.093ZM25.087.027a.215.215,0,0,0-.32.188V5.674a.15.15,0,0,1-.225.13l-.891-.513a.429.429,0,0,0-.429,0L19.664,7.344a.429.429,0,0,0-.215.371v4.108a.43.43,0,0,0,.215.372l3.558,2.055a.431.431,0,0,0,.43,0L27.21,12.2a.431.431,0,0,0,.215-.372V1.584a.431.431,0,0,0-.221-.375Zm11.849,9a.43.43,0,0,0,.214-.371v-1a.43.43,0,0,0-.214-.372L33.4,5.236a.429.429,0,0,0-.431,0L29.412,7.289a.429.429,0,0,0-.215.372v4.107a.431.431,0,0,0,.217.374l3.535,2.015a.429.429,0,0,0,.422,0l2.138-1.188a.214.214,0,0,0,0-.374l-3.579-2.054a.213.213,0,0,1-.108-.186V9.069a.213.213,0,0,1,.107-.186l1.114-.642a.212.212,0,0,1,.214,0l1.114.642a.214.214,0,0,1,.107.186v1.013a.214.214,0,0,0,.322.186Zm0,0" transform="translate(0 0)" fill="#fff" fill-rule="evenodd"/>
    <path id="Path_950" data-name="Path 950" d="M386.637,105.078a.081.081,0,0,1,.082,0l.683.394a.082.082,0,0,1,.041.071v.789a.082.082,0,0,1-.041.071l-.683.394a.081.081,0,0,1-.082,0l-.682-.394a.082.082,0,0,1-.042-.071v-.789a.081.081,0,0,1,.041-.071Zm0,0" transform="translate(-353.504 -96.244)" fill="#689f63" fill-rule="evenodd"/>
    <g id="Group_218" data-name="Group 218" transform="translate(9.746 5.199)" clip-path="url(#clip-path)">
      <path id="Path_951" data-name="Path 951" d="M166.859,193.49l-9.97-4.887-5.112,10.428,9.969,4.887Zm0,0" transform="translate(-155.354 -191.737)" fill="url(#linear-gradient)"/>
    </g>
    <g id="Group_219" data-name="Group 219" transform="translate(9.833 5.211)" clip-path="url(#clip-path-2)">
      <path id="Path_953" data-name="Path 953" d="M144.07,188.979l7.04,9.528,9.31-6.878-7.04-9.527Zm0,0" transform="translate(-148.38 -185.793)" fill="url(#linear-gradient-2)"/>
    </g>
    <g id="Group_220" data-name="Group 220" transform="translate(9.97 5.2)" clip-path="url(#clip-path-3)">
      <path id="Path_955" data-name="Path 955" d="M197.02,225.934v9.022h7.7v-9.022Zm0,0" transform="translate(-197.02 -225.934)" fill="url(#linear-gradient-3)"/>
    </g>
  </g>
</svg>
