<svg xmlns="http://www.w3.org/2000/svg" xmlns:xlink="http://www.w3.org/1999/xlink" width="48" height="48" viewBox="0 0 48 48">
  <defs>
    <clipPath id="clip-path">
      <rect id="Rectangle_57" data-name="Rectangle 57" width="48" height="48" transform="translate(4485 -273)" fill="#fff"/>
    </clipPath>
  </defs>
  <g id="Mask_Group_2" data-name="Mask Group 2" transform="translate(-4485 273)" clip-path="url(#clip-path)">
    <g id="react-2" transform="translate(4317.018 -341.5)">
      <path id="Path_7538" data-name="Path 7538" d="M208.264,92.5c0-2.157-2.7-4.2-6.843-5.469.956-4.222.531-7.58-1.341-8.656a2.91,2.91,0,0,0-1.487-.372v1.48a1.537,1.537,0,0,1,.757.173c.9.518,1.294,2.489.989,5.025-.073.624-.192,1.281-.339,1.951a32.167,32.167,0,0,0-4.215-.724,32.379,32.379,0,0,0-2.761-3.319c2.164-2.011,4.2-3.113,5.576-3.113V78c-1.825,0-4.215,1.3-6.631,3.558-2.416-2.244-4.806-3.531-6.631-3.531v1.48c1.374,0,3.412,1.1,5.576,3.093a31.35,31.35,0,0,0-2.741,3.312,31,31,0,0,0-4.222.73c-.153-.664-.266-1.308-.345-1.925-.312-2.536.073-4.507.969-5.031a1.477,1.477,0,0,1,.763-.173v-1.48a2.96,2.96,0,0,0-1.5.372c-1.865,1.075-2.283,4.427-1.321,8.636-4.129,1.274-6.817,3.312-6.817,5.463s2.7,4.2,6.843,5.469c-.956,4.222-.531,7.58,1.341,8.656a2.918,2.918,0,0,0,1.493.372c1.825,0,4.215-1.3,6.631-3.558,2.416,2.244,4.806,3.531,6.631,3.531a2.96,2.96,0,0,0,1.5-.372c1.865-1.075,2.283-4.427,1.321-8.636C205.576,96.7,208.264,94.654,208.264,92.5Zm-8.642-4.427c-.246.856-.551,1.739-.9,2.622-.272-.531-.558-1.062-.87-1.593s-.631-1.049-.956-1.553C197.843,87.691,198.753,87.864,199.622,88.076Zm-3.04,7.069c-.518.9-1.049,1.746-1.6,2.536-.989.086-1.991.133-3,.133s-2-.046-2.987-.126q-.826-1.185-1.606-2.522-.757-1.3-1.381-2.642c.412-.889.876-1.779,1.374-2.648.518-.9,1.049-1.746,1.6-2.536.989-.086,1.991-.133,3-.133s2,.046,2.987.126q.826,1.185,1.606,2.522.757,1.3,1.381,2.642c-.418.889-.876,1.779-1.374,2.648Zm2.144-.863c.358.889.664,1.779.916,2.642-.87.212-1.786.392-2.735.531.325-.511.65-1.035.956-1.573s.591-1.069.863-1.6ZM192,101.365a27.369,27.369,0,0,1-1.845-2.124c.6.027,1.208.046,1.825.046s1.241-.013,1.845-.046A25.909,25.909,0,0,1,192,101.365Zm-4.938-3.91c-.943-.139-1.852-.312-2.721-.524.246-.856.551-1.739.9-2.622.272.531.558,1.062.87,1.593S186.732,96.951,187.057,97.455Zm4.905-13.813a27.365,27.365,0,0,1,1.845,2.124c-.6-.027-1.208-.046-1.825-.046s-1.241.013-1.845.046A25.909,25.909,0,0,1,191.962,83.642Zm-4.912,3.91c-.325.511-.65,1.035-.956,1.573s-.591,1.062-.863,1.593c-.358-.889-.664-1.779-.916-2.642C185.185,87.87,186.1,87.691,187.05,87.552Zm-6.007,8.31c-2.35-1-3.87-2.317-3.87-3.359s1.52-2.363,3.87-3.359c.571-.246,1.195-.465,1.839-.67a31.881,31.881,0,0,0,1.493,4.042,31.43,31.43,0,0,0-1.474,4.022C182.245,96.333,181.621,96.108,181.043,95.862Zm3.571,9.485c-.9-.518-1.294-2.489-.989-5.025.073-.624.192-1.281.339-1.951a32.168,32.168,0,0,0,4.215.724,32.379,32.379,0,0,0,2.761,3.319c-2.164,2.011-4.2,3.113-5.576,3.113A1.584,1.584,0,0,1,184.614,105.347Zm15.745-5.058c.312,2.536-.073,4.507-.969,5.031a1.477,1.477,0,0,1-.763.173c-1.374,0-3.412-1.1-5.576-3.093a31.351,31.351,0,0,0,2.741-3.312,31,31,0,0,0,4.222-.73A18.582,18.582,0,0,1,200.359,100.289Zm2.555-4.427c-.571.246-1.195.465-1.839.67a31.88,31.88,0,0,0-1.493-4.042,31.43,31.43,0,0,0,1.474-4.022c.657.206,1.281.431,1.865.677,2.35,1,3.87,2.317,3.87,3.359S205.264,94.866,202.915,95.862Z" fill="#61dafb"/>
      <circle id="Ellipse_47" data-name="Ellipse 47" cx="3.033" cy="3.033" r="3.033" transform="translate(188.942 89.47)" fill="#61dafb"/>
    </g>
  </g>
</svg>
