<svg width="36" height="41" viewBox="0 0 36 41" fill="none" xmlns="http://www.w3.org/2000/svg">
<mask id="mask0" mask-type="alpha" maskUnits="userSpaceOnUse" x="-6" y="-3" width="48" height="48">
<rect x="-6" y="-3" width="48" height="48" fill="#C4C4C4"/>
</mask>
<g mask="url(#mask0)">
<path d="M36 21.0252C36 18.6416 33.0135 16.3827 28.4346 14.9818C29.4912 10.3173 29.0216 6.60619 26.9523 5.41805C26.4753 5.13935 25.9177 5.00733 25.3086 5.00733V6.64286C25.6461 6.64286 25.9177 6.70887 26.1451 6.83355C27.1431 7.40562 27.576 9.58388 27.2385 12.3855C27.1578 13.075 27.0257 13.801 26.8642 14.5418C25.426 14.1898 23.8557 13.9184 22.2046 13.7424C21.214 12.3855 20.1867 11.1534 19.1521 10.0753C21.5442 7.853 23.7896 6.63553 25.3159 6.63553V5C23.298 5 20.6563 6.4375 17.9853 8.93113C15.3143 6.45217 12.6726 5.02934 10.6547 5.02934V6.66486C12.1737 6.66486 14.4264 7.87501 16.8186 10.0826C15.7913 11.1607 14.764 12.3855 13.788 13.7424C12.1296 13.9184 10.5593 14.1898 9.12108 14.5491C8.9523 13.8157 8.82756 13.1043 8.7395 12.4222C8.39462 9.62055 8.82022 7.44229 9.81084 6.86289C10.031 6.73087 10.3172 6.6722 10.6547 6.6722V5.03667C10.0383 5.03667 9.48064 5.16869 8.99633 5.44739C6.93437 6.63553 6.47208 10.3393 7.53608 14.9892C2.97187 16.3973 0 18.6489 0 21.0252C0 23.4088 2.98655 25.6678 7.56543 27.0686C6.50876 31.7332 6.97839 35.4443 9.0477 36.6324C9.52466 36.9111 10.0823 37.0431 10.6987 37.0431C12.7167 37.0431 15.3583 35.6056 18.0294 33.112C20.7004 35.591 23.342 37.0138 25.36 37.0138C25.9764 37.0138 26.534 36.8818 27.0183 36.6031C29.0803 35.4149 29.5426 31.7112 28.4786 27.0613C33.0281 25.6604 36 23.4015 36 21.0252V21.0252ZM26.446 16.1333C26.1745 17.0794 25.8369 18.0549 25.4554 19.0303C25.1545 18.4436 24.839 17.8569 24.4941 17.2701C24.1565 16.6834 23.797 16.1113 23.4374 15.5539C24.4794 15.7079 25.4847 15.8986 26.446 16.1333ZM23.0852 23.9442C22.5128 24.9344 21.9258 25.8731 21.3168 26.7459C20.2234 26.8413 19.1154 26.8926 18 26.8926C16.892 26.8926 15.7839 26.8413 14.6979 26.7532C14.0889 25.8805 13.4945 24.949 12.9221 23.9662C12.3645 23.0055 11.8581 22.03 11.3958 21.0472C11.8508 20.0644 12.3645 19.0817 12.9148 18.1209C13.4872 17.1308 14.0742 16.192 14.6832 15.3192C15.7766 15.2239 16.8846 15.1725 18 15.1725C19.108 15.1725 20.2161 15.2239 21.3021 15.3119C21.9111 16.1847 22.5055 17.1161 23.0779 18.0989C23.6355 19.0597 24.1419 20.0351 24.6042 21.0179C24.1419 22.0007 23.6355 22.9835 23.0852 23.9442ZM25.4554 22.9908C25.8516 23.9736 26.1892 24.9564 26.468 25.9098C25.5067 26.1445 24.4941 26.3425 23.4448 26.4965C23.8043 25.9318 24.1639 25.3524 24.5014 24.7583C24.839 24.1716 25.1545 23.5775 25.4554 22.9908ZM18.0147 30.8164C17.3322 30.1123 16.6498 29.3275 15.9747 28.4694C16.6351 28.4988 17.3102 28.5208 17.9927 28.5208C18.6824 28.5208 19.3649 28.5061 20.0326 28.4694C19.3722 29.3275 18.6898 30.1123 18.0147 30.8164ZM12.5552 26.4965C11.5132 26.3425 10.5079 26.1518 9.54668 25.9171C9.81818 24.971 10.1557 23.9956 10.5373 23.0201C10.8382 23.6069 11.1537 24.1936 11.4986 24.7803C11.8435 25.3671 12.1957 25.9391 12.5552 26.4965ZM17.978 11.2341C18.6604 11.9382 19.3428 12.7229 20.0179 13.581C19.3575 13.5517 18.6824 13.5297 18 13.5297C17.3102 13.5297 16.6278 13.5443 15.9601 13.581C16.6205 12.7229 17.3029 11.9382 17.978 11.2341ZM12.5479 15.5539C12.1883 16.1186 11.8288 16.6981 11.4912 17.2921C11.1537 17.8789 10.8382 18.4656 10.5373 19.0523C10.1411 18.0695 9.80351 17.0868 9.52466 16.1333C10.4859 15.906 11.4986 15.7079 12.5479 15.5539V15.5539ZM5.90705 24.7363C3.30942 23.6289 1.62903 22.1767 1.62903 21.0252C1.62903 19.8738 3.30942 18.4143 5.90705 17.3141C6.53812 17.0428 7.22788 16.8007 7.93967 16.5734C8.35793 18.0109 8.90828 19.5071 9.59071 21.0399C8.91561 22.5654 8.37261 24.0543 7.96168 25.4844C7.23522 25.2571 6.54546 25.0077 5.90705 24.7363ZM9.85487 35.2169C8.85691 34.6448 8.42397 32.4666 8.76152 29.6649C8.84224 28.9755 8.97432 28.2494 9.13575 27.5087C10.574 27.8607 12.1443 28.1321 13.7954 28.3081C14.786 29.6649 15.8133 30.8971 16.8479 31.9752C14.4558 34.1975 12.2104 35.4149 10.6841 35.4149C10.3539 35.4076 10.075 35.3416 9.85487 35.2169V35.2169ZM27.2605 29.6282C27.6054 32.4299 27.1798 34.6082 26.1892 35.1876C25.969 35.3196 25.6828 35.3783 25.3453 35.3783C23.8263 35.3783 21.5736 34.1681 19.1814 31.9605C20.2087 30.8824 21.236 29.6576 22.212 28.3008C23.8704 28.1247 25.4407 27.8534 26.8789 27.494C27.0477 28.2348 27.1798 28.9462 27.2605 29.6282V29.6282ZM30.0856 24.7363C29.4545 25.0077 28.7648 25.2497 28.053 25.4771C27.6347 24.0396 27.0844 22.5434 26.402 21.0106C27.077 19.485 27.6201 17.9962 28.031 16.566C28.7574 16.7934 29.4472 17.0428 30.0929 17.3141C32.6906 18.4216 34.371 19.8738 34.371 21.0252C34.3636 22.1767 32.6832 23.6362 30.0856 24.7363V24.7363Z" fill="#61DAFB"/>
<path d="M17.9931 24.3768C19.8451 24.3768 21.3465 22.8762 21.3465 21.0251C21.3465 19.174 19.8451 17.6733 17.9931 17.6733C16.141 17.6733 14.6396 19.174 14.6396 21.0251C14.6396 22.8762 16.141 24.3768 17.9931 24.3768Z" fill="#61DAFB"/>
</g>
</svg>
