<svg id="wordpress" xmlns="http://www.w3.org/2000/svg" xmlns:xlink="http://www.w3.org/1999/xlink" width="48" height="48" viewBox="0 0 48 48">
  <defs>
    <clipPath id="clip-path">
      <path id="Path_968" data-name="Path 968" d="M0,0H30.353V30.353H0Z"/>
    </clipPath>
  </defs>
  <path id="bound" d="M0,0H48V48H0Z" fill="none"/>
  <g id="wordpress-blue" transform="translate(8.823 8.823)" clip-path="url(#clip-path)">
    <g id="Group_224" data-name="Group 224">
      <path id="Path_965" data-name="Path 965" d="M8.708,21.727a13.022,13.022,0,0,0,7.338,11.718L9.835,16.428A12.97,12.97,0,0,0,8.708,21.727Zm21.809-.657a6.855,6.855,0,0,0-1.074-3.591,6.094,6.094,0,0,1-1.278-3.053,2.254,2.254,0,0,1,2.186-2.311c.058,0,.112.007.169.01a13.017,13.017,0,0,0-19.67,2.451c.305.009.594.015.838.015,1.362,0,3.47-.165,3.47-.165a.538.538,0,0,1,.084,1.072s-.706.083-1.49.124l4.741,14.1,2.849-8.545-2.029-5.557c-.7-.041-1.365-.124-1.365-.124a.538.538,0,0,1,.082-1.072s2.15.165,3.429.165c1.362,0,3.47-.165,3.47-.165a.538.538,0,0,1,.083,1.072s-.707.083-1.49.124l4.705,14,1.3-4.34A15.721,15.721,0,0,0,30.517,21.07Z" transform="translate(-6.551 -6.551)" fill="#06abe2"/>
      <path id="Path_966" data-name="Path 966" d="M50.322,43.431,46.416,54.782a13.023,13.023,0,0,0,8-.207,1.1,1.1,0,0,1-.093-.179Zm11.2-7.385a9.992,9.992,0,0,1,.088,1.339,12.281,12.281,0,0,1-.99,4.663l-3.977,11.5a13.022,13.022,0,0,0,4.879-17.5Z" transform="translate(-34.917 -27.116)" fill="#06abe2"/>
      <path id="Path_967" data-name="Path 967" d="M15.177,0A15.177,15.177,0,1,0,30.354,15.176,15.194,15.194,0,0,0,15.177,0Zm0,29.658a14.481,14.481,0,1,1,14.48-14.481A14.5,14.5,0,0,1,15.177,29.658Z" fill="#06abe2"/>
    </g>
  </g>
</svg>
